<svg width="180" height="196" viewBox="0 0 180 196" fill="none" xmlns="http://www.w3.org/2000/svg">
<path d="M55.5272 42.3847L55.2919 42.3662H55.0558C48.7222 42.3662 42.2901 46.8673 42.2901 54.315V67.0592C42.2901 72.5273 42.0448 76.7179 40.3699 80.1441C37.5928 85.8249 33.0225 89.7495 27.347 89.9607C22.0424 90.1581 18.8717 89.6064 16.401 88.28C13.9433 86.9606 11.3671 84.4322 8.26016 78.9685L8.26012 78.9684C7.53826 77.699 6.14836 73.038 6.01087 65.8848C5.87876 59.0115 6.92924 50.5812 10.3105 42.0869C12.3955 36.8491 17.4319 29.1744 24.2122 22.291C31.0272 15.3723 38.8684 10.0028 46.2385 8.32596L46.6682 8.2282L47.0789 8.06872C49.4985 7.12934 54.1674 5.97862 59.5564 6.0003C64.9112 6.02185 70.5602 7.19481 75.3965 10.4347C79.653 13.2862 81.4275 17.4047 81.8821 21.6788C82.3603 26.1753 81.283 30.2035 80.5527 31.6711C79.5814 33.6232 77.8504 36.5137 74.3671 38.8089C70.9396 41.0674 65.2067 43.1476 55.5272 42.3847Z" fill="#FED892" stroke="#2A2C3A" stroke-width="12"/>
<path d="M124.473 42.3847L124.708 42.3662L124.944 42.3662C131.278 42.3662 137.71 46.8673 137.71 54.315L137.71 67.0592C137.71 72.5273 137.955 76.7179 139.63 80.1441C142.407 85.8249 146.978 89.7495 152.653 89.9607C157.958 90.1581 161.128 89.6064 163.599 88.28C166.057 86.9606 168.633 84.4322 171.74 78.9685L171.74 78.9684C172.462 77.699 173.852 73.038 173.989 65.8848C174.121 59.0115 173.071 50.5812 169.69 42.0869C167.605 36.8491 162.568 29.1744 155.788 22.291C148.973 15.3723 141.132 10.0028 133.762 8.32597L133.332 8.22821L132.921 8.06872C130.501 7.12934 125.833 5.97862 120.444 6.00031C115.089 6.02185 109.44 7.19481 104.604 10.4347C100.347 13.2862 98.5725 17.4047 98.1179 21.6788C97.6397 26.1753 98.7171 30.2035 99.4473 31.6712C100.419 33.6232 102.15 36.5137 105.633 38.8089C109.06 41.0674 114.793 43.1476 124.473 42.3847Z" fill="#C685FF" stroke="#2A2C3A" stroke-width="12"/>
<path d="M55.5272 153.615L55.2919 153.634H55.0558C48.7222 153.634 42.2901 149.133 42.2901 141.685V128.941C42.2901 123.473 42.0448 119.282 40.3699 115.856C37.5928 110.175 33.0225 106.251 27.347 106.039C22.0424 105.842 18.8717 106.394 16.401 107.72C13.9433 109.039 11.3671 111.568 8.26016 117.032L8.26012 117.032C7.53826 118.301 6.14836 122.962 6.01087 130.115C5.87876 136.989 6.92924 145.419 10.3105 153.913C12.3955 159.151 17.4319 166.826 24.2122 173.709C31.0272 180.628 38.8684 185.997 46.2385 187.674L46.6682 187.772L47.0789 187.931C49.4985 188.871 54.1674 190.021 59.5564 190C64.9112 189.978 70.5602 188.805 75.3965 185.565C79.653 182.714 81.4275 178.595 81.8821 174.321C82.3603 169.825 81.283 165.796 80.5527 164.329C79.5814 162.377 77.8504 159.486 74.3671 157.191C70.9396 154.933 65.2067 152.852 55.5272 153.615Z" fill="#7A90FF" stroke="#2A2C3A" stroke-width="12"/>
<path d="M124.473 153.615L124.708 153.634L124.944 153.634C131.278 153.634 137.71 149.133 137.71 141.685L137.71 128.941C137.71 123.473 137.955 119.282 139.63 115.856C142.407 110.175 146.978 106.251 152.653 106.039C157.958 105.842 161.128 106.394 163.599 107.72C166.057 109.039 168.633 111.568 171.74 117.032L171.74 117.032C172.462 118.301 173.852 122.962 173.989 130.115C174.121 136.989 173.071 145.419 169.69 153.913C167.605 159.151 162.568 166.826 155.788 173.709C148.973 180.628 141.132 185.997 133.762 187.674L133.332 187.772L132.921 187.931C130.501 188.871 125.833 190.021 120.444 190C115.089 189.978 109.44 188.805 104.604 185.565C100.347 182.714 98.5725 178.595 98.1179 174.321C97.6397 169.825 98.7171 165.796 99.4473 164.329C100.419 162.377 102.15 159.486 105.633 157.191C109.06 154.933 114.793 152.852 124.473 153.615Z" fill="#62F2FC" stroke="#2A2C3A" stroke-width="12"/>
<path d="M91.4889 103.735C88.978 99.4159 89.7346 94.6893 91.6573 91.1775C94.2015 86.5305 100.118 86.2892 105.319 85.2814C113.391 83.7175 117.462 79.0368 116.138 68.4468C114.86 63.6157 108.039 54.9767 92.6937 59.0689C73.5117 64.1841 65.8386 79.5297 64.1335 82.9399C62.4285 86.35 57.7395 112.352 71.8063 124.714C85.8732 137.076 91.8409 137.076 100.793 138.355C107.954 139.378 113.723 133.95 115.712 131.108C119.821 120.15 115.403 112.768 105.55 110.289C100.322 108.973 94.1981 108.395 91.4889 103.735Z" fill="#B0F4A2" stroke="#2A2C3A" stroke-width="6"/>
</svg>
